<mxfile host="780fb3f6-1ebb-4edd-b804-e3382247f7ac" modified="2020-09-17T22:44:50.344Z" agent="5.0 (Macintosh; Intel Mac OS X 10_15_6) AppleWebKit/537.36 (KHTML, like Gecko) Code/1.49.0 Chrome/83.0.4103.122 Electron/9.2.1 Safari/537.36" etag="9aAYKeWGyskExwsrOpGE" version="13.1.3">
    <diagram id="6hGFLwfOUW9BJ-s0fimq" name="Page-1">
        <mxGraphModel dx="728" dy="581" grid="1" gridSize="10" guides="1" tooltips="1" connect="1" arrows="1" fold="1" page="1" pageScale="1" pageWidth="827" pageHeight="1169" math="0" shadow="0">
            <root>
                <mxCell id="0"/>
                <mxCell id="1" parent="0"/>
                <mxCell id="2" value="Internet" style="rounded=0;whiteSpace=wrap;html=1;" parent="1" vertex="1">
                    <mxGeometry x="30" y="250" width="120" height="60" as="geometry"/>
                </mxCell>
                <mxCell id="3" value="" style="endArrow=classic;html=1;" parent="1" target="4" edge="1">
                    <mxGeometry width="50" height="50" relative="1" as="geometry">
                        <mxPoint x="160" y="280" as="sourcePoint"/>
                        <mxPoint x="240" y="280" as="targetPoint"/>
                    </mxGeometry>
                </mxCell>
                <mxCell id="4" value="" style="rounded=0;whiteSpace=wrap;html=1;" parent="1" vertex="1">
                    <mxGeometry x="180" y="70" width="660" height="500" as="geometry"/>
                </mxCell>
                <mxCell id="5" value="index.js" style="rounded=0;whiteSpace=wrap;html=1;fillColor=#e3c800;strokeColor=#B09500;fontColor=#000000;" parent="1" vertex="1">
                    <mxGeometry x="210" y="110" width="120" height="410" as="geometry"/>
                </mxCell>
                <mxCell id="6" value="routes.js /&lt;br&gt;response.js" style="rounded=0;whiteSpace=wrap;html=1;fillColor=#e3c800;strokeColor=#B09500;fontColor=#000000;" parent="1" vertex="1">
                    <mxGeometry x="340" y="110" width="120" height="410" as="geometry"/>
                </mxCell>
                <mxCell id="7" value="Posts" style="rounded=0;whiteSpace=wrap;html=1;align=left;fillColor=#76608a;strokeColor=#432D57;fontColor=#ffffff;" parent="1" vertex="1">
                    <mxGeometry x="470" y="110" width="340" height="190" as="geometry"/>
                </mxCell>
                <mxCell id="8" value="Usuario" style="rounded=0;whiteSpace=wrap;html=1;align=left;fillColor=#76608a;strokeColor=#432D57;fontColor=#ffffff;" parent="1" vertex="1">
                    <mxGeometry x="470" y="310" width="340" height="210" as="geometry"/>
                </mxCell>
                <mxCell id="9" value="network.js" style="rounded=0;whiteSpace=wrap;html=1;fillColor=#60a917;strokeColor=#2D7600;fontColor=#ffffff;" parent="1" vertex="1">
                    <mxGeometry x="540" y="120" width="80" height="170" as="geometry"/>
                </mxCell>
                <mxCell id="12" value="network.js" style="rounded=0;whiteSpace=wrap;html=1;fillColor=#60a917;strokeColor=#2D7600;fontColor=#ffffff;" parent="1" vertex="1">
                    <mxGeometry x="540" y="330" width="80" height="170" as="geometry"/>
                </mxCell>
                <mxCell id="13" value="controller.js" style="rounded=0;whiteSpace=wrap;html=1;fillColor=#d80073;strokeColor=#A50040;fontColor=#ffffff;" parent="1" vertex="1">
                    <mxGeometry x="630" y="120" width="80" height="170" as="geometry"/>
                </mxCell>
                <mxCell id="14" value="controller.js" style="rounded=0;whiteSpace=wrap;html=1;fillColor=#d80073;strokeColor=#A50040;fontColor=#ffffff;" parent="1" vertex="1">
                    <mxGeometry x="630" y="330" width="80" height="170" as="geometry"/>
                </mxCell>
                <mxCell id="15" value="store.js" style="rounded=0;whiteSpace=wrap;html=1;fillColor=#1ba1e2;strokeColor=#006EAF;fontColor=#ffffff;" parent="1" vertex="1">
                    <mxGeometry x="720" y="120" width="80" height="170" as="geometry"/>
                </mxCell>
                <mxCell id="17" value="store.js" style="rounded=0;whiteSpace=wrap;html=1;fillColor=#1ba1e2;strokeColor=#006EAF;fontColor=#ffffff;" parent="1" vertex="1">
                    <mxGeometry x="720" y="330" width="80" height="170" as="geometry"/>
                </mxCell>
            </root>
        </mxGraphModel>
    </diagram>
</mxfile>